<svg width="106" height="136" viewBox="0 0 106 136" fill="none" xmlns="http://www.w3.org/2000/svg">
<path d="M48.8018 19.0221C48.8018 17.992 49.2118 17.004 49.9417 16.2756C50.6715 15.5472 51.6613 15.1381 52.6935 15.1381H75.7322C79.707 15.1381 83.6429 15.9194 87.3152 17.4375C90.9874 18.9556 94.3243 21.1808 97.1349 23.9859C99.9455 26.791 102.175 30.1211 103.696 33.7861C105.217 37.4511 106 41.3793 106 45.3463V75.5545C106 79.5215 105.217 83.4496 103.696 87.1146C102.175 90.7797 99.9455 94.1097 97.1349 96.9148C94.3243 99.7199 90.9874 101.945 87.3152 103.463C83.6429 104.981 79.707 105.763 75.7322 105.763H45.4647V132.116C45.4647 133.146 45.0546 134.134 44.3248 134.862C43.595 135.591 42.6052 136 41.573 136H19.0304C17.9983 136 17.0083 135.591 16.2784 134.862C15.5486 134.134 15.1388 133.146 15.1388 132.116V52.5512C15.1388 51.5211 15.5486 50.5331 16.2784 49.8047C17.0083 49.0763 17.9983 48.6672 19.0304 48.6672H41.573C42.6052 48.6672 43.595 49.0763 44.3248 49.8047C45.0546 50.5331 45.4647 51.5211 45.4647 52.5512V75.5545H75.7322V45.3463H52.6935C51.6613 45.3463 50.6715 44.937 49.9417 44.2086C49.2118 43.4802 48.8018 42.4923 48.8018 41.4622V19.0221ZM26.4245 30.2664C27.4567 30.2664 28.4465 29.8572 29.1763 29.1288C29.9061 28.4004 30.3162 27.4125 30.3162 26.3823V3.88405C30.3162 2.85394 29.9061 1.86595 29.1763 1.13755C28.4465 0.409149 27.4567 0 26.4245 0H3.8917C2.85955 0 1.86974 0.409149 1.13991 1.13755C0.410073 1.86595 0 2.85394 0 3.88405V26.3823C0 27.4125 0.410073 28.4004 1.13991 29.1288C1.86974 29.8572 2.85955 30.2664 3.8917 30.2664H26.4245Z" fill="url(#paint0_linear_8_733)"/>
<defs>
<linearGradient id="paint0_linear_8_733" x1="77.9409" y1="9.46737" x2="-2.56407" y2="121.4" gradientUnits="userSpaceOnUse">
<stop stop-color="#38C7F7"/>
<stop offset="0.21" stop-color="#34A8EB"/>
<stop offset="0.66" stop-color="#2B59CD"/>
<stop offset="0.99" stop-color="#241CB5"/>
</linearGradient>
</defs>
</svg>
